<?xml version="1.0" standalone="no"?>
<!DOCTYPE svg PUBLIC "-//W3C//DTD SVG 20010904//EN"
 "http://www.w3.org/TR/2001/REC-SVG-20010904/DTD/svg10.dtd">
<svg version="1.0" xmlns="http://www.w3.org/2000/svg"
 width="1500.000000pt" height="1500.000000pt" viewBox="0 0 1500.000000 1500.000000"
 preserveAspectRatio="xMidYMid meet">
<metadata>
Created by potrace 1.11, written by Peter Selinger 2001-2013
</metadata>
<g transform="translate(0.000000,1500.000000) scale(0.100000,-0.100000)"
fill="#000000" stroke="none">
<path d="M6367 14243 c-1 -1 -56 -4 -122 -7 -117 -6 -146 -8 -270 -21 -101
-11 -148 -18 -220 -31 -11 -2 -47 -9 -80 -14 -119 -21 -368 -81 -461 -111 -33
-11 -69 -21 -80 -23 -48 -10 -518 -195 -549 -217 -5 -4 -62 -33 -125 -66 -207
-106 -506 -293 -670 -417 -189 -144 -238 -183 -369 -296 -195 -166 -618 -589
-774 -774 -10 -12 -39 -45 -65 -75 -145 -166 -372 -457 -502 -641 -156 -223
-379 -578 -473 -753 -18 -32 -45 -82 -60 -110 -66 -120 -220 -433 -287 -582
-39 -88 -78 -173 -85 -190 -7 -16 -23 -55 -35 -85 -12 -30 -28 -68 -35 -85
-98 -220 -303 -825 -390 -1150 -13 -49 -33 -122 -44 -160 -11 -39 -22 -81 -25
-95 -2 -14 -20 -88 -40 -165 -19 -77 -38 -156 -41 -175 -3 -19 -12 -60 -20
-90 -12 -50 -67 -322 -79 -394 -3 -16 -10 -52 -16 -80 -11 -55 -34 -205 -55
-346 -4 -30 -9 -64 -11 -74 -2 -11 -8 -54 -14 -95 -6 -42 -12 -87 -14 -101 -3
-14 -7 -52 -11 -85 -3 -33 -8 -73 -10 -90 -8 -53 -15 -118 -20 -190 -4 -38 -8
-90 -10 -115 -6 -54 -13 -161 -20 -290 -6 -108 -6 -468 0 -580 6 -116 15 -245
20 -271 2 -13 6 -51 9 -84 3 -33 8 -69 10 -80 2 -11 6 -41 10 -66 10 -69 21
-132 30 -169 3 -14 8 -36 10 -50 60 -337 217 -744 411 -1065 78 -129 227 -343
280 -401 5 -6 35 -40 65 -75 371 -431 821 -780 1440 -1116 685 -373 1587 -686
2505 -869 36 -7 299 -54 339 -60 21 -3 48 -8 60 -10 20 -4 353 -46 466 -60 72
-8 99 -10 200 -18 47 -4 105 -9 130 -11 313 -25 1062 -26 1380 0 25 2 80 6
123 10 43 3 95 8 115 10 20 2 66 6 102 9 61 6 98 10 180 21 19 2 58 7 85 10
191 23 545 86 795 142 85 19 162 36 170 38 8 2 45 10 81 19 282 67 934 280
1136 372 17 8 34 14 37 14 7 0 201 83 294 126 42 20 104 49 137 64 393 181
980 532 1300 776 39 30 83 64 100 76 58 44 270 214 285 229 8 8 62 54 120 104
103 88 479 457 575 566 28 30 64 71 81 90 205 230 498 634 637 878 102 180
164 300 237 461 132 291 243 630 296 905 4 22 8 42 9 45 0 3 4 26 8 51 4 25
10 57 12 70 5 26 9 60 20 149 3 30 8 69 11 85 24 170 24 632 -1 910 -5 47 -39
295 -50 360 -22 126 -38 208 -50 255 -8 30 -16 67 -19 83 -4 15 -8 39 -12 55
-3 15 -21 86 -41 157 -19 72 -39 144 -43 161 -4 18 -10 37 -14 43 -4 6 -9 19
-11 28 -13 68 -161 475 -237 652 -186 438 -418 873 -673 1261 -79 120 -219
322 -249 361 -12 15 -30 39 -41 55 -56 78 -293 379 -330 418 -6 6 -39 45 -74
86 -165 195 -507 546 -706 726 -506 457 -958 791 -1505 1111 -154 90 -287 163
-345 190 -16 8 -39 19 -50 25 -155 86 -524 254 -777 354 -270 107 -802 278
-993 319 -11 3 -108 24 -215 48 -166 38 -328 70 -405 82 -79 12 -245 36 -285
41 -62 7 -138 16 -175 20 -22 2 -56 7 -76 9 -70 10 -115 16 -174 21 -33 3 -76
7 -95 9 -135 13 -575 27 -583 18z"/>
</g>
</svg>
